<?xml version="1.0" standalone="no"?>
<!DOCTYPE svg PUBLIC "-//W3C//DTD SVG 1.1//EN" "http://www.w3.org/Graphics/SVG/1.1/DTD/svg11.dtd">
<svg xmlns="http://www.w3.org/2000/svg" xmlns:xlink="http://www.w3.org/1999/xlink" width="467.25" zoomAndPan="magnify" viewBox="0 0 467.25 96.749999" height="96.75" preserveAspectRatio="xMidYMid meet" version="1.0"><defs><g/><clipPath id="42d08ba430"><path d="M 445.816406 19.476562 L 465.265625 19.476562 L 465.265625 38.925781 L 445.816406 38.925781 Z M 445.816406 19.476562 " clip-rule="nonzero"/></clipPath></defs><g fill="#000000" fill-opacity="1"><g transform="translate(18.909678, 64.295462)"><g><path d="M 24.546875 0.796875 C 19.515625 0.796875 15.460938 0.257812 12.390625 -0.8125 C 9.328125 -1.894531 6.992188 -3.378906 5.390625 -5.265625 C 3.785156 -7.160156 2.707031 -9.335938 2.15625 -11.796875 L 18.6875 -11.796875 C 19.914062 -10.035156 21.867188 -9.15625 24.546875 -9.15625 C 27.210938 -9.15625 29.160156 -10.035156 30.390625 -11.796875 C 30.492188 -11.972656 30.546875 -12.128906 30.546875 -12.265625 C 30.546875 -12.734375 29.925781 -13.082031 28.6875 -13.3125 C 27.457031 -13.550781 25.617188 -13.726562 23.171875 -13.84375 C 20.078125 -13.988281 16.832031 -14.316406 13.4375 -14.828125 C 5.863281 -16.003906 2.078125 -19.050781 2.078125 -23.96875 C 2.078125 -24.382812 2.101562 -24.828125 2.15625 -25.296875 C 2.707031 -27.765625 3.785156 -29.941406 5.390625 -31.828125 C 6.992188 -33.710938 9.328125 -35.191406 12.390625 -36.265625 C 15.460938 -37.347656 19.515625 -37.890625 24.546875 -37.890625 C 29.566406 -37.890625 33.609375 -37.347656 36.671875 -36.265625 C 39.742188 -35.191406 42.082031 -33.710938 43.6875 -31.828125 C 45.300781 -29.941406 46.382812 -27.765625 46.9375 -25.296875 L 30.390625 -25.296875 C 29.160156 -27.054688 27.210938 -27.9375 24.546875 -27.9375 C 21.867188 -27.9375 19.914062 -27.054688 18.6875 -25.296875 C 18.601562 -25.148438 18.5625 -25.019531 18.5625 -24.90625 C 18.5625 -24.488281 19.148438 -24.179688 20.328125 -23.984375 C 21.515625 -23.785156 23.257812 -23.613281 25.5625 -23.46875 C 27.863281 -23.332031 30.316406 -23.109375 32.921875 -22.796875 C 35.535156 -22.492188 37.972656 -21.957031 40.234375 -21.1875 C 42.503906 -20.414062 44.28125 -19.28125 45.5625 -17.78125 C 46.5625 -16.625 47.0625 -15.160156 47.0625 -13.390625 C 47.0625 -12.878906 47.019531 -12.347656 46.9375 -11.796875 C 46.382812 -9.335938 45.300781 -7.160156 43.6875 -5.265625 C 42.082031 -3.378906 39.742188 -1.894531 36.671875 -0.8125 C 33.609375 0.257812 29.566406 0.796875 24.546875 0.796875 Z M 24.546875 0.796875 "/></g></g></g><g fill="#000000" fill-opacity="1"><g transform="translate(68.034846, 64.295462)"><g><path d="M 65.125 0 L 44.890625 0 L 28.9375 -12.421875 L 19.71875 -6.140625 L 19.71875 0 L 4.140625 0 L 4.140625 -37.140625 L 19.71875 -37.140625 L 19.71875 -19.953125 L 44.734375 -37.140625 L 65.125 -37.140625 L 38.515625 -18.96875 Z M 65.125 0 "/></g></g></g><g fill="#000000" fill-opacity="1"><g transform="translate(133.543705, 64.295462)"><g><path d="M 19.71875 0 L 4.140625 0 L 4.140625 -37.140625 L 19.71875 -37.140625 Z M 19.71875 0 "/></g></g></g><g fill="#000000" fill-opacity="1"><g transform="translate(157.407458, 64.295462)"><g><path d="M 59.25 0 L 40.71875 0 L 19.71875 -25.140625 L 19.71875 0 L 4.140625 0 L 4.140625 -37.140625 L 22.671875 -37.140625 L 43.671875 -12.140625 L 43.671875 -37.140625 L 59.25 -37.140625 Z M 59.25 0 "/></g></g></g><g fill="#000000" fill-opacity="1"><g transform="translate(220.793932, 64.295462)"><g><path d="M 47.5 0 L 4.140625 0 L 4.140625 -37.140625 L 19.71875 -37.140625 L 19.71875 -9.1875 L 47.5 -9.1875 Z M 47.5 0 "/></g></g></g><g fill="#000000" fill-opacity="1"><g transform="translate(269.323818, 64.295462)"><g><path d="M 62.390625 0 L 46.59375 0 L 43.09375 -6.078125 L 19.671875 -6.078125 L 16.171875 0 L 0.390625 0 L 24.15625 -37.125 L 38.625 -37.125 Z M 37.84375 -15.265625 L 31.40625 -26.53125 L 24.921875 -15.265625 Z M 37.84375 -15.265625 "/></g></g></g><g fill="#000000" fill-opacity="1"><g transform="translate(332.08912, 64.295462)"><g><path d="M 30.78125 0 L 4.140625 0 L 4.140625 -37.125 L 31.34375 -37.125 C 36.175781 -37.125 40.15625 -36.898438 43.28125 -36.453125 C 46.40625 -36.015625 48.8125 -35.328125 50.5 -34.390625 C 52.195312 -33.453125 53.347656 -32.253906 53.953125 -30.796875 C 54.554688 -29.347656 54.859375 -27.617188 54.859375 -25.609375 C 54.804688 -24.015625 54.367188 -22.695312 53.546875 -21.65625 C 52.722656 -20.613281 51.765625 -19.835938 50.671875 -19.328125 C 49.578125 -18.816406 48.613281 -18.5625 47.78125 -18.5625 C 48.59375 -18.5625 49.539062 -18.398438 50.625 -18.078125 C 51.71875 -17.765625 52.773438 -17.304688 53.796875 -16.703125 C 54.828125 -16.097656 55.679688 -15.363281 56.359375 -14.5 C 57.046875 -13.632812 57.390625 -12.648438 57.390625 -11.546875 C 57.390625 -10.097656 57.21875 -8.769531 56.875 -7.5625 C 56.539062 -6.351562 55.867188 -5.28125 54.859375 -4.34375 C 53.859375 -3.414062 52.375 -2.628906 50.40625 -1.984375 C 48.4375 -1.335938 45.859375 -0.84375 42.671875 -0.5 C 39.484375 -0.164062 35.519531 0 30.78125 0 Z M 29.90625 -21.75 C 32.175781 -21.75 33.9375 -21.859375 35.1875 -22.078125 C 36.4375 -22.304688 37.300781 -22.648438 37.78125 -23.109375 C 38.269531 -23.566406 38.515625 -24.144531 38.515625 -24.84375 C 38.515625 -25.570312 38.269531 -26.164062 37.78125 -26.625 C 37.300781 -27.082031 36.4375 -27.414062 35.1875 -27.625 C 33.9375 -27.84375 32.175781 -27.953125 29.90625 -27.953125 L 19.71875 -27.953125 L 19.71875 -21.75 Z M 29.90625 -9.15625 C 32.226562 -9.15625 34.113281 -9.21875 35.5625 -9.34375 C 37.019531 -9.46875 38.082031 -9.742188 38.75 -10.171875 C 39.425781 -10.609375 39.765625 -11.304688 39.765625 -12.265625 C 39.765625 -13.234375 39.425781 -13.9375 38.75 -14.375 C 38.082031 -14.820312 37.019531 -15.097656 35.5625 -15.203125 C 34.113281 -15.316406 32.226562 -15.375 29.90625 -15.375 L 19.71875 -15.375 L 19.71875 -9.15625 Z M 29.90625 -9.15625 "/></g></g></g><g fill="#000000" fill-opacity="1"><g transform="translate(391.54145, 64.295462)"><g><path d="M 24.546875 0.796875 C 19.515625 0.796875 15.460938 0.257812 12.390625 -0.8125 C 9.328125 -1.894531 6.992188 -3.378906 5.390625 -5.265625 C 3.785156 -7.160156 2.707031 -9.335938 2.15625 -11.796875 L 18.6875 -11.796875 C 19.914062 -10.035156 21.867188 -9.15625 24.546875 -9.15625 C 27.210938 -9.15625 29.160156 -10.035156 30.390625 -11.796875 C 30.492188 -11.972656 30.546875 -12.128906 30.546875 -12.265625 C 30.546875 -12.734375 29.925781 -13.082031 28.6875 -13.3125 C 27.457031 -13.550781 25.617188 -13.726562 23.171875 -13.84375 C 20.078125 -13.988281 16.832031 -14.316406 13.4375 -14.828125 C 5.863281 -16.003906 2.078125 -19.050781 2.078125 -23.96875 C 2.078125 -24.382812 2.101562 -24.828125 2.15625 -25.296875 C 2.707031 -27.765625 3.785156 -29.941406 5.390625 -31.828125 C 6.992188 -33.710938 9.328125 -35.191406 12.390625 -36.265625 C 15.460938 -37.347656 19.515625 -37.890625 24.546875 -37.890625 C 29.566406 -37.890625 33.609375 -37.347656 36.671875 -36.265625 C 39.742188 -35.191406 42.082031 -33.710938 43.6875 -31.828125 C 45.300781 -29.941406 46.382812 -27.765625 46.9375 -25.296875 L 30.390625 -25.296875 C 29.160156 -27.054688 27.210938 -27.9375 24.546875 -27.9375 C 21.867188 -27.9375 19.914062 -27.054688 18.6875 -25.296875 C 18.601562 -25.148438 18.5625 -25.019531 18.5625 -24.90625 C 18.5625 -24.488281 19.148438 -24.179688 20.328125 -23.984375 C 21.515625 -23.785156 23.257812 -23.613281 25.5625 -23.46875 C 27.863281 -23.332031 30.316406 -23.109375 32.921875 -22.796875 C 35.535156 -22.492188 37.972656 -21.957031 40.234375 -21.1875 C 42.503906 -20.414062 44.28125 -19.28125 45.5625 -17.78125 C 46.5625 -16.625 47.0625 -15.160156 47.0625 -13.390625 C 47.0625 -12.878906 47.019531 -12.347656 46.9375 -11.796875 C 46.382812 -9.335938 45.300781 -7.160156 43.6875 -5.265625 C 42.082031 -3.378906 39.742188 -1.894531 36.671875 -0.8125 C 33.609375 0.257812 29.566406 0.796875 24.546875 0.796875 Z M 24.546875 0.796875 "/></g></g></g><g clip-path="url(#42d08ba430)"><path fill="#000000" d="M 455.539062 19.476562 C 450.179688 19.476562 445.816406 23.84375 445.816406 29.203125 C 445.816406 34.5625 450.179688 38.925781 455.539062 38.925781 C 460.898438 38.925781 465.265625 34.5625 465.265625 29.203125 C 465.265625 23.84375 460.898438 19.476562 455.539062 19.476562 Z M 455.539062 21.421875 C 459.847656 21.421875 463.320312 24.894531 463.320312 29.203125 C 463.320312 33.507812 459.847656 36.980469 455.539062 36.980469 C 451.234375 36.980469 447.761719 33.507812 447.761719 29.203125 C 447.761719 24.894531 451.234375 21.421875 455.539062 21.421875 Z M 452.625 25.3125 L 452.625 33.089844 L 454.226562 33.089844 L 454.226562 30.242188 L 455.503906 30.242188 L 456.964844 33.089844 L 458.683594 33.089844 L 458.683594 33.015625 L 457 29.835938 C 457.210938 29.742188 457.40625 29.628906 457.578125 29.496094 C 457.75 29.363281 457.894531 29.207031 458.015625 29.03125 C 458.136719 28.855469 458.230469 28.65625 458.292969 28.429688 C 458.355469 28.203125 458.390625 27.949219 458.390625 27.664062 C 458.390625 27.277344 458.324219 26.9375 458.191406 26.648438 C 458.0625 26.355469 457.871094 26.109375 457.625 25.914062 C 457.378906 25.714844 457.078125 25.566406 456.722656 25.464844 C 456.367188 25.359375 455.964844 25.3125 455.515625 25.3125 Z M 454.226562 26.609375 L 455.515625 26.609375 C 455.945312 26.609375 456.265625 26.714844 456.476562 26.925781 C 456.683594 27.132812 456.785156 27.421875 456.785156 27.789062 C 456.785156 27.964844 456.761719 28.121094 456.707031 28.261719 C 456.652344 28.402344 456.574219 28.523438 456.46875 28.625 C 456.363281 28.726562 456.230469 28.804688 456.074219 28.859375 C 455.914062 28.917969 455.730469 28.945312 455.519531 28.945312 L 454.226562 28.945312 Z M 454.226562 26.609375 " fill-opacity="1" fill-rule="nonzero"/></g></svg>